<svg width="330" height="135" viewBox="0 0 330 135" fill="none" xmlns="http://www.w3.org/2000/svg">
<g filter="url(#filter0_d_146_14921)">
<rect x="25" y="15" width="280" height="85" rx="42.5" fill="#66B3DE"/>
</g>
<path d="M133.45 62.5V60.925H139.26V62.5H133.45ZM133.45 56.865H139.26V58.44H133.45V56.865ZM149.585 56.865V58.44H143.46V56.865H149.585ZM149.585 62.5H143.46V60.925H149.585V62.5ZM143.46 71.775V69.92H155.15V66.805H143.46V65.23H153.855V54.135H143.46V52.805H157.18V49.55H143.46V47.73C147.275 47.45 150.915 47.065 153.96 46.575L152.035 43.355C146.12 44.335 136.635 44.93 128.48 45.105C128.83 45.945 129.285 47.345 129.32 48.29C132.47 48.255 135.9 48.15 139.26 48.01V49.55H125.89V52.805H139.26V54.135H129.39V65.23H139.26V66.805H128.235V69.92H139.26V71.775H125.68V75.065H157.425V71.775H143.46ZM163.095 65.3C162.36 67.47 161.205 69.85 160.015 71.495C160.785 71.95 162.115 72.86 162.745 73.385C163.97 71.6 165.405 68.73 166.28 66.21L163.095 65.3ZM171.32 50.215C170.97 51.51 170.34 53.295 169.815 54.555H164.775L167.295 53.855C167.12 52.875 166.665 51.37 166.14 50.215H171.32ZM176.605 64.18V60.68H171.18V57.985H177.165V54.555H173.525C174.05 53.47 174.575 52.105 175.1 50.775L172.265 50.215H176.64V46.82H171.635C171.215 45.63 170.585 44.195 170.06 43.04L165.895 44.055C166.245 44.895 166.63 45.875 166.945 46.82H160.96V50.215H165.685L162.815 50.915C163.235 52 163.655 53.505 163.83 54.555H160.435V57.985H167.155V60.68H160.645V64.18H167.155V75.8H171.18V64.18H176.605ZM192.775 54.87H182.205V49.375C185.635 48.745 189.275 47.905 192.145 46.75L188.96 43.705C186.405 44.895 182.17 45.98 178.355 46.68V59.14C178.355 62.36 178.25 66.14 177.27 69.5C176.675 68.17 175.59 66.315 174.645 64.915L171.915 66.385C172.895 67.995 174.085 70.235 174.645 71.635L177.13 70.095C176.745 71.32 176.22 72.475 175.555 73.49C176.43 73.91 178.075 75.24 178.775 75.975C181.75 71.495 182.205 64.285 182.205 59.14V58.72H185.46V75.905H189.52V58.72H192.775V54.87ZM212.585 51.195C213.81 50.215 214.93 49.2 215.945 48.08C217.17 49.165 218.57 50.215 220.075 51.195H212.585ZM206.46 60.645C205.97 59.805 203.73 56.34 202.89 55.22V53.715H205.55V52.07C206.32 52.805 207.195 53.785 207.65 54.415C208.805 53.785 209.995 53.05 211.115 52.28V54.31H221.405V52.035C223.015 53.015 224.73 53.925 226.34 54.625C226.62 53.505 227.355 51.72 227.985 50.67C224.555 49.55 220.705 47.52 218.115 45.385C218.36 45.035 218.605 44.685 218.78 44.335L214.825 42.9C212.9 45.98 209.4 49.13 205.55 51.195V49.865H202.89V43.355H199.635V49.865H196.1V53.715H199.11C198.305 57.635 196.87 62.15 195.225 64.635C195.75 65.72 196.52 67.575 196.835 68.765C197.885 66.91 198.83 64.18 199.635 61.205V76.01H202.89V59.525C203.625 60.925 204.36 62.5 204.71 63.48L206.46 60.645ZM220.04 58.86H222.525V62.08H220.04V58.86ZM217.03 64.845H225.71V56.06H217.03V64.845ZM209.995 58.86H212.34V62.08H209.995V58.86ZM207.02 64.845H215.49V56.06H207.02V64.845ZM209.75 65.23C208.7 68.765 206.46 71.705 203.415 73.525C204.22 74.085 205.515 75.45 206.075 76.15C208.035 74.82 209.715 73.07 211.08 70.935C212.165 71.705 213.285 72.65 213.88 73.35L215.945 70.585C215.21 69.85 213.88 68.87 212.62 68.065C212.9 67.4 213.18 66.7 213.39 66L209.75 65.23ZM219.41 65.195C218.78 68.765 217.1 71.705 214.37 73.49C215.14 74.015 216.47 75.415 216.995 76.115C218.535 74.995 219.865 73.525 220.88 71.775C222.63 73.07 224.345 74.505 225.325 75.555L227.81 72.755C226.62 71.565 224.345 69.92 222.385 68.555C222.7 67.645 222.945 66.7 223.155 65.72L219.41 65.195ZM255.705 46.89H252.1V67.12H255.705V46.89ZM239.29 46.89C238.1 45.84 235.65 44.44 233.76 43.635L231.415 46.715C233.34 47.59 235.72 49.13 236.84 50.25L239.29 46.89ZM237.96 55.99C236.77 54.905 234.285 53.68 232.36 52.945L230.085 55.99C232.01 56.865 234.39 58.265 235.545 59.35L237.96 55.99ZM235.195 62.29C233.83 66.385 231.975 70.83 230.68 73.525L234.425 75.66C235.86 72.23 237.4 68.205 238.555 64.46L235.195 62.29ZM240.76 67.82C239.815 70.095 238.205 72.44 236.56 74.015C237.47 74.505 239.045 75.52 239.815 76.15C241.495 74.4 243.385 71.53 244.54 68.87L240.76 67.82ZM245.66 69.29C246.955 71.04 248.53 73.385 249.195 74.855L252.485 72.895C251.75 71.425 250.105 69.15 248.81 67.54L245.66 69.29ZM246.71 51.265H243.28V48.325H246.71V51.265ZM246.71 57.565H243.28V54.59H246.71V57.565ZM246.71 63.935H243.28V60.925H246.71V63.935ZM250.35 44.72H239.78V67.54H250.35V44.72ZM257.875 43.39V71.355C257.875 71.88 257.7 72.055 257.105 72.09C256.545 72.09 254.865 72.09 253.08 72.02C253.605 73.175 254.13 74.925 254.27 76.01C257 76.01 258.82 75.87 260.045 75.205C261.27 74.575 261.655 73.49 261.655 71.355V43.39H257.875Z" fill="white"/>
<path d="M85.5 77.5C80.1958 77.5 75.7031 75.6594 72.0219 71.9781C68.3406 68.2969 66.5 63.8042 66.5 58.5C66.5 53.1958 68.3406 48.7031 72.0219 45.0219C75.7031 41.3406 80.1958 39.5 85.5 39.5C88.2312 39.5 90.8438 40.0645 93.3375 41.1934C95.8313 42.3207 97.9688 43.9333 99.75 46.0312V41.875C99.75 41.2021 99.978 40.6376 100.434 40.1816C100.888 39.7272 101.452 39.5 102.125 39.5C102.798 39.5 103.362 39.7272 103.816 40.1816C104.272 40.6376 104.5 41.2021 104.5 41.875V53.75C104.5 54.4229 104.272 54.9866 103.816 55.441C103.362 55.897 102.798 56.125 102.125 56.125H90.25C89.5771 56.125 89.0134 55.897 88.559 55.441C88.103 54.9866 87.875 54.4229 87.875 53.75C87.875 53.0771 88.103 52.5126 88.559 52.0566C89.0134 51.6022 89.5771 51.375 90.25 51.375H97.85C96.5833 49.1583 94.852 47.4167 92.6559 46.15C90.4582 44.8833 88.0729 44.25 85.5 44.25C81.5417 44.25 78.1771 45.6354 75.4062 48.4062C72.6354 51.1771 71.25 54.5417 71.25 58.5C71.25 62.4583 72.6354 65.8229 75.4062 68.5938C78.1771 71.3646 81.5417 72.75 85.5 72.75C88.2312 72.75 90.7551 72.0272 93.0715 70.5816C95.3863 69.1376 97.1177 67.2083 98.2656 64.7937C98.4635 64.3583 98.7905 63.9926 99.2465 63.6965C99.7009 63.3988 100.166 63.25 100.641 63.25C101.551 63.25 102.234 63.5667 102.69 64.2C103.145 64.8333 103.194 65.5458 102.837 66.3375C101.333 69.7021 99.0177 72.4032 95.8906 74.441C92.7635 76.4803 89.3 77.5 85.5 77.5Z" fill="white"/>
<defs>
<filter id="filter0_d_146_14921" x="0" y="0" width="330" height="135" filterUnits="userSpaceOnUse" color-interpolation-filters="sRGB">
<feFlood flood-opacity="0" result="BackgroundImageFix"/>
<feColorMatrix in="SourceAlpha" type="matrix" values="0 0 0 0 0 0 0 0 0 0 0 0 0 0 0 0 0 0 127 0" result="hardAlpha"/>
<feOffset dy="10"/>
<feGaussianBlur stdDeviation="12.5"/>
<feComposite in2="hardAlpha" operator="out"/>
<feColorMatrix type="matrix" values="0 0 0 0 0 0 0 0 0 0 0 0 0 0 0 0 0 0 0.25 0"/>
<feBlend mode="normal" in2="BackgroundImageFix" result="effect1_dropShadow_146_14921"/>
<feBlend mode="normal" in="SourceGraphic" in2="effect1_dropShadow_146_14921" result="shape"/>
</filter>
</defs>
</svg>
