<svg width="428" height="129" viewBox="0 0 428 129" fill="none" xmlns="http://www.w3.org/2000/svg">
<rect x="0.518066" y="0.00183105" width="426.958" height="128.861" rx="64.4305" fill="#444444"/>
<path d="M159.575 83.7165V88.6045H206.947V83.7165H159.575ZM159.887 50.5405V55.4285H206.583V50.5405H159.887ZM163.423 76.2805V81.0125H203.567V76.2805H163.423ZM179.855 46.1205V86.2125H186.095V46.1205H179.855ZM198.939 41.3365C190.099 42.7405 175.955 43.6245 163.787 43.8845C164.307 45.1325 164.983 47.2645 165.035 48.6685C177.203 48.5645 191.659 47.7845 201.799 46.1205L198.939 41.3365ZM171.223 67.5445H195.247V69.8845H171.223V67.5445ZM171.223 61.4605H195.247V63.8005H171.223V61.4605ZM165.139 57.3525V73.9925H201.643V57.3525H165.139ZM240.175 58.4965V64.2685H259.571V58.4965H240.175ZM211.991 46.4325V51.5285H235.391V46.4325H211.991ZM211.471 67.1285V72.3805H235.339V67.1285H211.471ZM211.315 58.0285V63.1765H235.807V58.0285H211.315ZM248.599 60.9925V89.8525H254.631V60.9925H248.599ZM220.675 41.7005V48.7205H226.759V41.7005H220.675ZM220.675 62.8645V90.0605H226.759V62.8645H220.675ZM237.367 45.3925V63.5405C237.367 70.6645 236.795 79.5565 230.763 85.9525C232.167 86.7325 234.455 88.8645 235.235 90.2165C242.307 82.8845 243.295 71.3925 243.295 63.6445V48.3565C244.231 48.2005 244.595 47.9405 244.647 47.4205L237.367 45.3925ZM254.371 41.8045C250.679 43.7805 244.543 45.6525 238.979 46.9005C239.707 48.0965 240.591 50.2805 240.903 51.6325C246.987 50.4885 254.059 48.7205 259.363 46.3285L254.371 41.8045ZM226.291 72.5885L222.963 75.2925C224.887 77.0085 228.839 80.9085 230.555 82.9885L234.143 78.5165C232.895 77.4765 227.903 73.5765 226.291 72.5885ZM214.591 52.3085C215.423 54.2845 216.099 56.9365 216.203 58.6525L221.299 57.3005C221.039 55.5845 220.311 53.0365 219.375 51.1645L214.591 52.3085ZM227.539 51.0605C227.071 52.8805 226.187 55.5325 225.459 57.3005L230.399 58.3405C231.179 56.7285 232.063 54.4925 233.051 52.1005L227.539 51.0605ZM220.727 70.1965C218.439 74.7725 214.123 79.8165 210.015 82.4685C211.315 83.4565 213.135 85.5365 214.123 86.8885C218.283 83.5085 222.599 77.5285 225.147 71.8085L220.727 70.1965ZM287.547 53.7125V58.4965H303.719V53.7125H287.547ZM295.555 46.9525C298.571 51.2165 304.083 56.4685 308.971 59.3285C309.907 57.5085 311.259 55.2725 312.455 53.8165C307.203 51.4245 301.847 46.4325 298.207 41.3365H292.487C289.835 45.8605 284.375 51.6325 278.863 54.6485C280.007 55.9485 281.307 58.2365 282.035 59.7965C287.547 56.5205 292.643 51.2685 295.555 46.9525ZM286.559 65.1005H290.043V69.2085H286.559V65.1005ZM282.035 60.8885V73.4205H294.775V60.8885H282.035ZM301.379 65.1005H305.019V69.2085H301.379V65.1005ZM296.751 60.8885V73.4205H309.855V60.8885H296.751ZM286.247 73.9405C285.207 79.5045 282.607 83.8725 278.239 86.3165C279.383 87.2525 281.151 89.2805 281.827 90.3725C287.079 87.3565 290.355 82.0005 291.915 75.1885L286.247 73.9405ZM285.883 81.8965C287.859 83.5605 290.251 85.9525 291.343 87.5645L294.983 83.9245C293.839 82.4165 291.291 80.1805 289.367 78.6205L285.883 81.8965ZM300.287 73.9925C299.455 79.6085 297.219 83.7165 293.007 85.9525C294.047 86.8885 295.763 88.9685 296.439 90.0605C301.587 87.2005 304.603 82.0005 305.799 75.0845L300.287 73.9925ZM299.403 81.8965C302.367 84.3925 306.423 87.9285 308.295 90.1645L312.247 86.0565C310.271 83.9245 306.111 80.5965 303.095 78.3085L299.403 81.8965ZM263.575 52.0485V57.8205H280.527V52.0485H263.575ZM269.919 41.2845V90.1125H275.587V41.2845H269.919ZM269.815 56.0005C268.619 62.6045 265.707 70.7685 262.379 75.2925C263.263 76.7485 264.615 79.1405 265.135 80.8045C268.827 75.4485 271.791 65.4125 273.299 57.1965L269.815 56.0005ZM275.327 59.7965L272.727 62.2925C274.131 64.7365 277.199 70.6645 278.395 73.6805L281.619 69.2085C280.735 67.7525 276.471 61.2005 275.327 59.7965ZM334.399 58.1325H339.495V62.5525H334.399V58.1325ZM334.399 67.5445H339.495V71.9645H334.399V67.5445ZM334.399 48.7725H339.495V53.1405H334.399V48.7725ZM329.199 43.3645V77.3725H345.007V43.3645H329.199ZM337.987 80.0245C339.859 82.6245 342.251 86.1605 343.187 88.3965L348.179 85.3805C347.087 83.2485 344.591 79.8165 342.667 77.4245L337.987 80.0245ZM330.603 77.8925C329.251 81.2205 326.807 84.7565 324.363 87.0445C325.715 87.8245 328.107 89.3845 329.251 90.3205C331.799 87.6685 334.555 83.4045 336.271 79.4005L330.603 77.8925ZM356.187 41.2845V83.0925C356.187 83.9245 355.875 84.1845 355.043 84.1845C354.211 84.1845 351.663 84.2365 349.011 84.1325C349.791 85.7965 350.571 88.4485 350.779 90.0605C354.887 90.0605 357.643 89.9045 359.463 88.8645C361.231 87.9285 361.855 86.3165 361.855 83.0925V41.2845H356.187ZM347.607 46.5885V76.8005H352.963V46.5885H347.607ZM316.667 46.2765C319.527 47.6285 323.115 49.9165 324.779 51.5805L328.471 46.5885C326.651 44.9765 323.011 42.9485 320.151 41.7525L316.667 46.2765ZM314.639 60.1605C317.551 61.4605 321.139 63.5925 322.803 65.2045L326.443 60.1605C324.675 58.5485 320.983 56.6765 318.071 55.5845L314.639 60.1605ZM315.523 86.3685L321.191 89.5405C323.323 84.4445 325.559 78.4125 327.379 72.8485L322.335 69.6245C320.255 75.7085 317.551 82.3125 315.523 86.3685Z" fill="white"/>
<path d="M138.942 73.2966C139.366 72.2768 138.883 71.1061 137.863 70.6818C136.844 70.2576 135.673 70.7404 135.249 71.7602L138.942 73.2966ZM109.826 87.7073L109.506 89.6816L109.826 87.7073ZM106.266 38.8599L105.663 36.9529L105.663 36.9529L106.266 38.8599ZM122.778 39.3235L122.069 41.1936L122.778 39.3235ZM135.499 51.9234C136.603 51.8952 137.475 50.9772 137.447 49.873L136.987 31.8788C136.959 30.7746 136.041 29.9024 134.937 29.9306C133.832 29.9588 132.96 30.8769 132.988 31.9811L133.397 47.9758L117.402 48.3847C116.298 48.413 115.426 49.331 115.454 50.4352C115.482 51.5394 116.4 52.4117 117.505 52.3834L135.499 51.9234ZM135.249 71.7602C133.246 76.5736 129.679 80.5711 125.124 83.1066L127.07 86.6016C132.411 83.6284 136.594 78.9409 138.942 73.2966L135.249 71.7602ZM125.124 83.1066C120.569 85.6421 115.292 86.5674 110.146 85.7331L109.506 89.6816C115.54 90.6599 121.728 89.5748 127.07 86.6016L125.124 83.1066ZM110.146 85.7331C105 84.8988 100.286 82.3535 96.7651 78.5087L93.815 81.21C97.9434 85.7185 103.472 88.7032 109.506 89.6816L110.146 85.7331ZM96.7651 78.5087C93.2445 74.6638 91.1232 69.7441 90.7442 64.5447L86.7548 64.8355C87.1992 70.9325 89.6866 76.7014 93.815 81.21L96.7651 78.5087ZM90.7442 64.5447C90.3652 59.3453 91.7507 54.1699 94.6766 49.8552L91.366 47.6102C87.935 52.6698 86.3104 58.7385 86.7548 64.8355L90.7442 64.5447ZM94.6766 49.8552C97.6025 45.5405 101.898 42.3385 106.869 40.7668L105.663 36.9529C99.8339 38.796 94.797 42.5507 91.366 47.6102L94.6766 49.8552ZM106.869 40.7668C111.839 39.1951 117.195 39.3455 122.069 41.1936L123.487 37.4534C117.771 35.2862 111.491 35.1099 105.663 36.9529L106.869 40.7668ZM122.069 41.1936C124.4 42.0772 125.924 43.2016 127.582 44.7945C128.44 45.6182 129.309 46.5435 130.369 47.6533C131.416 48.7505 132.614 49.9903 134.07 51.374L136.825 48.4742C135.44 47.1584 134.296 45.9744 133.262 44.8915C132.241 43.8214 131.291 42.8104 130.353 41.9097C128.421 40.054 126.452 38.5776 123.487 37.4534L122.069 41.1936Z" fill="white"/>
</svg>
